<?xml version="1.0" standalone="no"?><!DOCTYPE svg PUBLIC "-//W3C//DTD SVG 1.1//EN" "http://www.w3.org/Graphics/SVG/1.1/DTD/svg11.dtd"><svg t="1755135989833" class="icon" viewBox="0 0 1024 1024" version="1.1" xmlns="http://www.w3.org/2000/svg" p-id="1584" width="256" height="256" xmlns:xlink="http://www.w3.org/1999/xlink"><path d="M932.1984 90.624H349.5936v418.2016h368.9984v436.2752h213.6064V90.624z" fill="#C0C2C5" p-id="1585"></path><path d="M718.592 964.5056H116.5824c-10.7008 0-19.4048-8.704-19.4048-19.4048V90.624c0-10.7008 8.704-19.4048 19.4048-19.4048h233.0112c10.7008 0 19.4048 8.704 19.4048 19.4048v398.6944h349.5936c10.7008 0 19.4048 8.704 19.4048 19.4048v436.2752c0 10.8032-8.704 19.5072-19.4048 19.5072zM135.9872 925.696h563.2v-397.5168H349.5936c-10.7008 0-19.4048-8.704-19.4048-19.4048V109.9776H135.9872V925.696z" fill="#2E3641" p-id="1586"></path><path d="M932.1984 964.5056h-213.6064c-10.7008 0-19.4048-8.704-19.4048-19.4048v-416.9216H349.5936c-10.7008 0-19.4048-8.704-19.4048-19.4048V90.624c0-10.7008 8.704-19.4048 19.4048-19.4048h582.6048c10.7008 0 19.4048 8.704 19.4048 19.4048v854.4768c0 10.7008-8.704 19.4048-19.4048 19.4048z m-194.2016-38.8096h174.7968V109.9776H368.9984v379.2896h349.5936c10.7008 0 19.4048 8.704 19.4048 19.4048v417.024z" fill="#2E3641" p-id="1587"></path></svg>